<?xml version="1.0" encoding="UTF-8" standalone="no"?>
<!DOCTYPE svg PUBLIC "-//W3C//DTD SVG 1.1//EN"
 "http://www.w3.org/Graphics/SVG/1.1/DTD/svg11.dtd">
<!-- Generated by graphviz version 2.40.1 (20161225.0304)
 -->
<!-- Title: dependencies Pages: 1 -->
<svg width="968pt" height="284pt"
 viewBox="0.00 0.00 968.00 284.00" xmlns="http://www.w3.org/2000/svg" xmlns:xlink="http://www.w3.org/1999/xlink">
<g id="graph0" class="graph" transform="scale(1 1) rotate(0) translate(4 280)">
<title>dependencies</title>
<polygon fill="#ffffff" stroke="transparent" points="-4,4 -4,-280 964,-280 964,4 -4,4"/>
<text text-anchor="start" x="459.0091" y="-42.4" font-family="sans-serif" font-weight="bold" font-size="14.00" fill="#000000">Legend</text>
<polygon fill="#ffffb3" stroke="transparent" points="246,-10 246,-30 266,-30 266,-10 246,-10"/>
<text text-anchor="start" x="269.629" y="-15.4" font-family="sans-serif" font-size="14.00" fill="#000000"> &#160;Declarations</text>
<polygon fill="#8dd3c7" stroke="transparent" points="359,-10 359,-30 379,-30 379,-10 359,-10"/>
<text text-anchor="start" x="382.7251" y="-15.4" font-family="sans-serif" font-size="14.00" fill="#000000"> &#160;Module</text>
<polygon fill="#80b1d3" stroke="transparent" points="445,-10 445,-30 465,-30 465,-10 445,-10"/>
<text text-anchor="start" x="468.7812" y="-15.4" font-family="sans-serif" font-size="14.00" fill="#000000"> &#160;Bootstrap</text>
<polygon fill="#fdb462" stroke="transparent" points="542,-10 542,-30 562,-30 562,-10 542,-10"/>
<text text-anchor="start" x="565.6732" y="-15.4" font-family="sans-serif" font-size="14.00" fill="#000000"> &#160;Providers</text>
<polygon fill="#fb8072" stroke="transparent" points="638,-10 638,-30 658,-30 658,-10 638,-10"/>
<text text-anchor="start" x="661.7258" y="-15.4" font-family="sans-serif" font-size="14.00" fill="#000000"> &#160;Exports</text>
<g id="clust1" class="cluster">
<title>cluster_ScreenModule</title>
<polygon fill="none" stroke="#000000" stroke-dasharray="1,5" points="8,-70 8,-268 952,-268 952,-70 8,-70"/>
</g>
<g id="clust2" class="cluster">
<title>cluster_ScreenModule_declarations</title>
<polygon fill="none" stroke="#000000" points="444,-78 444,-130 944,-130 944,-78 444,-78"/>
</g>
<g id="clust6" class="cluster">
<title>cluster_ScreenModule_imports</title>
<polygon fill="none" stroke="#000000" points="16,-78 16,-130 436,-130 436,-78 16,-78"/>
</g>
<g id="clust7" class="cluster">
<title>cluster_ScreenModule_exports</title>
<polygon fill="none" stroke="#000000" points="129,-208 129,-260 639,-260 639,-208 129,-208"/>
</g>
<!-- ScreenChatComponent -->
<g id="node1" class="node">
<title>ScreenChatComponent</title>
<polygon fill="#ffffb3" stroke="#000000" points="935.8613,-122 790.1387,-122 790.1387,-86 935.8613,-86 935.8613,-122"/>
<text text-anchor="middle" x="863" y="-99.8" font-family="Times,serif" font-size="14.00" fill="#000000">ScreenChatComponent</text>
</g>
<!-- ScreenModule -->
<g id="node4" class="node">
<title>ScreenModule</title>
<polygon fill="#8dd3c7" stroke="#000000" points="433.6375,-187 430.6375,-191 409.6375,-191 406.6375,-187 336.3625,-187 336.3625,-151 433.6375,-151 433.6375,-187"/>
<text text-anchor="middle" x="385" y="-164.8" font-family="Times,serif" font-size="14.00" fill="#000000">ScreenModule</text>
</g>
<!-- ScreenChatComponent&#45;&gt;ScreenModule -->
<g id="edge1" class="edge">
<title>ScreenChatComponent&#45;&gt;ScreenModule</title>
<path fill="none" stroke="#000000" d="M863,-122.1289C863,-142.5724 863,-173 863,-173 863,-173 443.908,-173 443.908,-173"/>
<polygon fill="#000000" stroke="#000000" points="443.9081,-169.5001 433.908,-173 443.908,-176.5001 443.9081,-169.5001"/>
</g>
<!-- ScreenHomeComponent -->
<g id="node2" class="node">
<title>ScreenHomeComponent</title>
<polygon fill="#ffffb3" stroke="#000000" points="771.6316,-122 618.3684,-122 618.3684,-86 771.6316,-86 771.6316,-122"/>
<text text-anchor="middle" x="695" y="-99.8" font-family="Times,serif" font-size="14.00" fill="#000000">ScreenHomeComponent</text>
</g>
<!-- ScreenHomeComponent&#45;&gt;ScreenModule -->
<g id="edge2" class="edge">
<title>ScreenHomeComponent&#45;&gt;ScreenModule</title>
<path fill="none" stroke="#000000" d="M624.4325,-122.2667C624.4325,-140.5552 624.4325,-166 624.4325,-166 624.4325,-166 443.7413,-166 443.7413,-166"/>
<polygon fill="#000000" stroke="#000000" points="443.7414,-162.5001 433.7413,-166 443.7413,-169.5001 443.7414,-162.5001"/>
</g>
<!-- ScreenShopComponent -->
<g id="node3" class="node">
<title>ScreenShopComponent</title>
<polygon fill="#ffffb3" stroke="#000000" points="600.2021,-122 451.7979,-122 451.7979,-86 600.2021,-86 600.2021,-122"/>
<text text-anchor="middle" x="526" y="-99.8" font-family="Times,serif" font-size="14.00" fill="#000000">ScreenShopComponent</text>
</g>
<!-- ScreenShopComponent&#45;&gt;ScreenModule -->
<g id="edge3" class="edge">
<title>ScreenShopComponent&#45;&gt;ScreenModule</title>
<path fill="none" stroke="#000000" d="M457.7323,-122.0091C457.7323,-138.0494 457.7323,-159 457.7323,-159 457.7323,-159 443.917,-159 443.917,-159"/>
<polygon fill="#000000" stroke="#000000" points="443.9171,-155.5001 433.917,-159 443.917,-162.5001 443.9171,-155.5001"/>
</g>
<!-- ScreenChatComponent  -->
<g id="node9" class="node">
<title>ScreenChatComponent </title>
<polygon fill="#fb8072" stroke="#000000" points="630.8616,-252 481.1384,-252 481.1384,-216 630.8616,-216 630.8616,-252"/>
<text text-anchor="middle" x="556" y="-229.8" font-family="Times,serif" font-size="14.00" fill="#000000">ScreenChatComponent </text>
</g>
<!-- ScreenModule&#45;&gt;ScreenChatComponent  -->
<g id="edge8" class="edge">
<title>ScreenModule&#45;&gt;ScreenChatComponent </title>
<path fill="none" stroke="#000000" stroke-dasharray="5,2" d="M433.8405,-180C479.5052,-180 540.7102,-180 540.7102,-180 540.7102,-180 540.7102,-205.7181 540.7102,-205.7181"/>
<polygon fill="#000000" stroke="#000000" points="537.2103,-205.718 540.7102,-215.7181 544.2103,-205.7181 537.2103,-205.718"/>
</g>
<!-- ScreenHomeComponent  -->
<g id="node10" class="node">
<title>ScreenHomeComponent </title>
<polygon fill="#fb8072" stroke="#000000" points="463.6313,-252 306.3687,-252 306.3687,-216 463.6313,-216 463.6313,-252"/>
<text text-anchor="middle" x="385" y="-229.8" font-family="Times,serif" font-size="14.00" fill="#000000">ScreenHomeComponent </text>
</g>
<!-- ScreenModule&#45;&gt;ScreenHomeComponent  -->
<g id="edge9" class="edge">
<title>ScreenModule&#45;&gt;ScreenHomeComponent </title>
<path fill="none" stroke="#000000" stroke-dasharray="5,2" d="M385,-187.1061C385,-187.1061 385,-205.991 385,-205.991"/>
<polygon fill="#000000" stroke="#000000" points="381.5001,-205.9909 385,-215.991 388.5001,-205.991 381.5001,-205.9909"/>
</g>
<!-- ScreenShopComponent  -->
<g id="node11" class="node">
<title>ScreenShopComponent </title>
<polygon fill="#fb8072" stroke="#000000" points="288.7023,-252 137.2977,-252 137.2977,-216 288.7023,-216 288.7023,-252"/>
<text text-anchor="middle" x="213" y="-229.8" font-family="Times,serif" font-size="14.00" fill="#000000">ScreenShopComponent </text>
</g>
<!-- ScreenModule&#45;&gt;ScreenShopComponent  -->
<g id="edge10" class="edge">
<title>ScreenModule&#45;&gt;ScreenShopComponent </title>
<path fill="none" stroke="#000000" stroke-dasharray="5,2" d="M336.17,-180C301.9648,-180 262.3424,-180 262.3424,-180 262.3424,-180 262.3424,-205.7181 262.3424,-205.7181"/>
<polygon fill="#000000" stroke="#000000" points="258.8425,-205.718 262.3424,-215.7181 265.8425,-205.7181 258.8425,-205.718"/>
</g>
<!-- ChatModule -->
<g id="node5" class="node">
<title>ChatModule</title>
<polygon fill="#8dd3c7" stroke="#000000" points="427.9916,-122 424.9916,-126 403.9916,-126 400.9916,-122 342.0084,-122 342.0084,-86 427.9916,-86 427.9916,-122"/>
<text text-anchor="middle" x="385" y="-99.8" font-family="Times,serif" font-size="14.00" fill="#000000">ChatModule</text>
</g>
<!-- ChatModule&#45;&gt;ScreenModule -->
<g id="edge4" class="edge">
<title>ChatModule&#45;&gt;ScreenModule</title>
<path fill="none" stroke="#000000" d="M385,-122.1061C385,-122.1061 385,-140.991 385,-140.991"/>
<polygon fill="#000000" stroke="#000000" points="381.5001,-140.9909 385,-150.991 388.5001,-140.991 381.5001,-140.9909"/>
</g>
<!-- ShopModule -->
<g id="node6" class="node">
<title>ShopModule</title>
<polygon fill="#8dd3c7" stroke="#000000" points="324.333,-122 321.333,-126 300.333,-126 297.333,-122 235.667,-122 235.667,-86 324.333,-86 324.333,-122"/>
<text text-anchor="middle" x="280" y="-99.8" font-family="Times,serif" font-size="14.00" fill="#000000">ShopModule</text>
</g>
<!-- ShopModule&#45;&gt;ScreenModule -->
<g id="edge5" class="edge">
<title>ShopModule&#45;&gt;ScreenModule</title>
<path fill="none" stroke="#000000" d="M315.3003,-122.0091C315.3003,-138.0494 315.3003,-159 315.3003,-159 315.3003,-159 326.2125,-159 326.2125,-159"/>
<polygon fill="#000000" stroke="#000000" points="326.2125,-162.5001 336.2125,-159 326.2125,-155.5001 326.2125,-162.5001"/>
</g>
<!-- SportModule -->
<g id="node7" class="node">
<title>SportModule</title>
<polygon fill="#8dd3c7" stroke="#000000" points="217.8837,-122 214.8837,-126 193.8837,-126 190.8837,-122 128.1163,-122 128.1163,-86 217.8837,-86 217.8837,-122"/>
<text text-anchor="middle" x="173" y="-99.8" font-family="Times,serif" font-size="14.00" fill="#000000">SportModule</text>
</g>
<!-- SportModule&#45;&gt;ScreenModule -->
<g id="edge6" class="edge">
<title>SportModule&#45;&gt;ScreenModule</title>
<path fill="none" stroke="#000000" d="M177.5454,-122.2667C177.5454,-140.5552 177.5454,-166 177.5454,-166 177.5454,-166 326.3611,-166 326.3611,-166"/>
<polygon fill="#000000" stroke="#000000" points="326.3611,-169.5001 336.3611,-166 326.3611,-162.5001 326.3611,-169.5001"/>
</g>
<!-- UserModule -->
<g id="node8" class="node">
<title>UserModule</title>
<polygon fill="#8dd3c7" stroke="#000000" points="109.9762,-122 106.9762,-126 85.9762,-126 82.9762,-122 24.0238,-122 24.0238,-86 109.9762,-86 109.9762,-122"/>
<text text-anchor="middle" x="67" y="-99.8" font-family="Times,serif" font-size="14.00" fill="#000000">UserModule</text>
</g>
<!-- UserModule&#45;&gt;ScreenModule -->
<g id="edge7" class="edge">
<title>UserModule&#45;&gt;ScreenModule</title>
<path fill="none" stroke="#000000" d="M67,-122.1289C67,-142.5724 67,-173 67,-173 67,-173 326.3565,-173 326.3565,-173"/>
<polygon fill="#000000" stroke="#000000" points="326.3565,-176.5001 336.3565,-173 326.3565,-169.5001 326.3565,-176.5001"/>
</g>
</g>
</svg>
