<?xml version="1.0" encoding="UTF-8" standalone="no"?>
<!DOCTYPE svg PUBLIC "-//W3C//DTD SVG 1.1//EN"
 "http://www.w3.org/Graphics/SVG/1.1/DTD/svg11.dtd">
<!-- Generated by graphviz version 2.40.1 (20161225.0304)
 -->
<!-- Title: dependencies Pages: 1 -->
<svg width="504pt" height="284pt"
 viewBox="0.00 0.00 504.00 284.00" xmlns="http://www.w3.org/2000/svg" xmlns:xlink="http://www.w3.org/1999/xlink">
<g id="graph0" class="graph" transform="scale(1 1) rotate(0) translate(4 280)">
<title>dependencies</title>
<polygon fill="#ffffff" stroke="transparent" points="-4,4 -4,-280 500,-280 500,4 -4,4"/>
<text text-anchor="start" x="227.0091" y="-42.4" font-family="sans-serif" font-weight="bold" font-size="14.00" fill="#000000">Legend</text>
<polygon fill="#ffffb3" stroke="transparent" points="14,-10 14,-30 34,-30 34,-10 14,-10"/>
<text text-anchor="start" x="37.629" y="-15.4" font-family="sans-serif" font-size="14.00" fill="#000000"> &#160;Declarations</text>
<polygon fill="#8dd3c7" stroke="transparent" points="127,-10 127,-30 147,-30 147,-10 127,-10"/>
<text text-anchor="start" x="150.7251" y="-15.4" font-family="sans-serif" font-size="14.00" fill="#000000"> &#160;Module</text>
<polygon fill="#80b1d3" stroke="transparent" points="213,-10 213,-30 233,-30 233,-10 213,-10"/>
<text text-anchor="start" x="236.7812" y="-15.4" font-family="sans-serif" font-size="14.00" fill="#000000"> &#160;Bootstrap</text>
<polygon fill="#fdb462" stroke="transparent" points="310,-10 310,-30 330,-30 330,-10 310,-10"/>
<text text-anchor="start" x="333.6732" y="-15.4" font-family="sans-serif" font-size="14.00" fill="#000000"> &#160;Providers</text>
<polygon fill="#fb8072" stroke="transparent" points="406,-10 406,-30 426,-30 426,-10 406,-10"/>
<text text-anchor="start" x="429.7258" y="-15.4" font-family="sans-serif" font-size="14.00" fill="#000000"> &#160;Exports</text>
<g id="clust1" class="cluster">
<title>cluster_UserModule</title>
<polygon fill="none" stroke="#000000" stroke-dasharray="1,5" points="70,-70 70,-268 426,-268 426,-70 70,-70"/>
</g>
<g id="clust2" class="cluster">
<title>cluster_UserModule_declarations</title>
<polygon fill="none" stroke="#000000" points="82,-78 82,-130 415,-130 415,-78 82,-78"/>
</g>
<g id="clust6" class="cluster">
<title>cluster_UserModule_exports</title>
<polygon fill="none" stroke="#000000" points="78,-208 78,-260 418,-260 418,-208 78,-208"/>
</g>
<!-- UserConnexionComponent -->
<g id="node1" class="node">
<title>UserConnexionComponent</title>
<polygon fill="#ffffb3" stroke="#000000" points="406.7007,-122 237.2993,-122 237.2993,-86 406.7007,-86 406.7007,-122"/>
<text text-anchor="middle" x="322" y="-99.8" font-family="Times,serif" font-size="14.00" fill="#000000">UserConnexionComponent</text>
</g>
<!-- UserModule -->
<g id="node3" class="node">
<title>UserModule</title>
<polygon fill="#8dd3c7" stroke="#000000" points="198.9762,-187 195.9762,-191 174.9762,-191 171.9762,-187 113.0238,-187 113.0238,-151 198.9762,-151 198.9762,-187"/>
<text text-anchor="middle" x="156" y="-164.8" font-family="Times,serif" font-size="14.00" fill="#000000">UserModule</text>
</g>
<!-- UserConnexionComponent&#45;&gt;UserModule -->
<g id="edge1" class="edge">
<title>UserConnexionComponent&#45;&gt;UserModule</title>
<path fill="none" stroke="#000000" d="M350.2834,-122.0225C350.2834,-139.3734 350.2834,-163 350.2834,-163 350.2834,-163 209.1178,-163 209.1178,-163"/>
<polygon fill="#000000" stroke="#000000" points="209.1178,-159.5001 199.1178,-163 209.1178,-166.5001 209.1178,-159.5001"/>
</g>
<!-- UserListComponent -->
<g id="node2" class="node">
<title>UserListComponent</title>
<polygon fill="#ffffb3" stroke="#000000" points="219.538,-122 90.462,-122 90.462,-86 219.538,-86 219.538,-122"/>
<text text-anchor="middle" x="155" y="-99.8" font-family="Times,serif" font-size="14.00" fill="#000000">UserListComponent</text>
</g>
<!-- UserListComponent&#45;&gt;UserModule -->
<g id="edge2" class="edge">
<title>UserListComponent&#45;&gt;UserModule</title>
<path fill="none" stroke="#000000" d="M156,-122.1061C156,-122.1061 156,-140.991 156,-140.991"/>
<polygon fill="#000000" stroke="#000000" points="152.5001,-140.9909 156,-150.991 159.5001,-140.991 152.5001,-140.9909"/>
</g>
<!-- UserConnexionComponent  -->
<g id="node4" class="node">
<title>UserConnexionComponent </title>
<polygon fill="#fb8072" stroke="#000000" points="410.2009,-252 237.7991,-252 237.7991,-216 410.2009,-216 410.2009,-252"/>
<text text-anchor="middle" x="324" y="-229.8" font-family="Times,serif" font-size="14.00" fill="#000000">UserConnexionComponent </text>
</g>
<!-- UserModule&#45;&gt;UserConnexionComponent  -->
<g id="edge3" class="edge">
<title>UserModule&#45;&gt;UserConnexionComponent </title>
<path fill="none" stroke="#000000" stroke-dasharray="5,2" d="M199.2749,-175C239.736,-175 293.9666,-175 293.9666,-175 293.9666,-175 293.9666,-205.9775 293.9666,-205.9775"/>
<polygon fill="#000000" stroke="#000000" points="290.4667,-205.9774 293.9666,-215.9775 297.4667,-205.9775 290.4667,-205.9774"/>
</g>
<!-- UserListComponent  -->
<g id="node5" class="node">
<title>UserListComponent </title>
<polygon fill="#fb8072" stroke="#000000" points="219.5372,-252 86.4628,-252 86.4628,-216 219.5372,-216 219.5372,-252"/>
<text text-anchor="middle" x="153" y="-229.8" font-family="Times,serif" font-size="14.00" fill="#000000">UserListComponent </text>
</g>
<!-- UserModule&#45;&gt;UserListComponent  -->
<g id="edge4" class="edge">
<title>UserModule&#45;&gt;UserListComponent </title>
<path fill="none" stroke="#000000" stroke-dasharray="5,2" d="M156,-187.1061C156,-187.1061 156,-205.991 156,-205.991"/>
<polygon fill="#000000" stroke="#000000" points="152.5001,-205.9909 156,-215.991 159.5001,-205.991 152.5001,-205.9909"/>
</g>
</g>
</svg>
