<?xml version="1.0" encoding="UTF-8" standalone="no"?>
<!DOCTYPE svg PUBLIC "-//W3C//DTD SVG 1.1//EN"
 "http://www.w3.org/Graphics/SVG/1.1/DTD/svg11.dtd">
<!-- Generated by graphviz version 2.40.1 (20161225.0304)
 -->
<!-- Title: dependencies Pages: 1 -->
<svg width="504pt" height="284pt"
 viewBox="0.00 0.00 504.00 284.00" xmlns="http://www.w3.org/2000/svg" xmlns:xlink="http://www.w3.org/1999/xlink">
<g id="graph0" class="graph" transform="scale(1 1) rotate(0) translate(4 280)">
<title>dependencies</title>
<polygon fill="#ffffff" stroke="transparent" points="-4,4 -4,-280 500,-280 500,4 -4,4"/>
<text text-anchor="start" x="227.0091" y="-42.4" font-family="sans-serif" font-weight="bold" font-size="14.00" fill="#000000">Legend</text>
<polygon fill="#ffffb3" stroke="transparent" points="14,-10 14,-30 34,-30 34,-10 14,-10"/>
<text text-anchor="start" x="37.629" y="-15.4" font-family="sans-serif" font-size="14.00" fill="#000000"> &#160;Declarations</text>
<polygon fill="#8dd3c7" stroke="transparent" points="127,-10 127,-30 147,-30 147,-10 127,-10"/>
<text text-anchor="start" x="150.7251" y="-15.4" font-family="sans-serif" font-size="14.00" fill="#000000"> &#160;Module</text>
<polygon fill="#80b1d3" stroke="transparent" points="213,-10 213,-30 233,-30 233,-10 213,-10"/>
<text text-anchor="start" x="236.7812" y="-15.4" font-family="sans-serif" font-size="14.00" fill="#000000"> &#160;Bootstrap</text>
<polygon fill="#fdb462" stroke="transparent" points="310,-10 310,-30 330,-30 330,-10 310,-10"/>
<text text-anchor="start" x="333.6732" y="-15.4" font-family="sans-serif" font-size="14.00" fill="#000000"> &#160;Providers</text>
<polygon fill="#fb8072" stroke="transparent" points="406,-10 406,-30 426,-30 426,-10 406,-10"/>
<text text-anchor="start" x="429.7258" y="-15.4" font-family="sans-serif" font-size="14.00" fill="#000000"> &#160;Exports</text>
<g id="clust1" class="cluster">
<title>cluster_ChatModule</title>
<polygon fill="none" stroke="#000000" stroke-dasharray="1,5" points="95,-70 95,-268 401,-268 401,-70 95,-70"/>
</g>
<g id="clust2" class="cluster">
<title>cluster_ChatModule_declarations</title>
<polygon fill="none" stroke="#000000" points="107,-78 107,-130 389,-130 389,-78 107,-78"/>
</g>
<g id="clust6" class="cluster">
<title>cluster_ChatModule_exports</title>
<polygon fill="none" stroke="#000000" points="103,-208 103,-260 393,-260 393,-208 103,-208"/>
</g>
<!-- ChatComponent -->
<g id="node1" class="node">
<title>ChatComponent</title>
<polygon fill="#ffffb3" stroke="#000000" points="380.7744,-122 273.2256,-122 273.2256,-86 380.7744,-86 380.7744,-122"/>
<text text-anchor="middle" x="327" y="-99.8" font-family="Times,serif" font-size="14.00" fill="#000000">ChatComponent</text>
</g>
<!-- ChatModule -->
<g id="node3" class="node">
<title>ChatModule</title>
<polygon fill="#8dd3c7" stroke="#000000" points="228.9916,-187 225.9916,-191 204.9916,-191 201.9916,-187 143.0084,-187 143.0084,-151 228.9916,-151 228.9916,-187"/>
<text text-anchor="middle" x="186" y="-164.8" font-family="Times,serif" font-size="14.00" fill="#000000">ChatModule</text>
</g>
<!-- ChatComponent&#45;&gt;ChatModule -->
<g id="edge1" class="edge">
<title>ChatComponent&#45;&gt;ChatModule</title>
<path fill="none" stroke="#000000" d="M345.0457,-122.0225C345.0457,-139.3734 345.0457,-163 345.0457,-163 345.0457,-163 239.0401,-163 239.0401,-163"/>
<polygon fill="#000000" stroke="#000000" points="239.0401,-159.5001 229.0401,-163 239.04,-166.5001 239.0401,-159.5001"/>
</g>
<!-- ChatTopicComponent -->
<g id="node2" class="node">
<title>ChatTopicComponent</title>
<polygon fill="#ffffb3" stroke="#000000" points="255.4327,-122 114.5673,-122 114.5673,-86 255.4327,-86 255.4327,-122"/>
<text text-anchor="middle" x="185" y="-99.8" font-family="Times,serif" font-size="14.00" fill="#000000">ChatTopicComponent</text>
</g>
<!-- ChatTopicComponent&#45;&gt;ChatModule -->
<g id="edge2" class="edge">
<title>ChatTopicComponent&#45;&gt;ChatModule</title>
<path fill="none" stroke="#000000" d="M186,-122.1061C186,-122.1061 186,-140.991 186,-140.991"/>
<polygon fill="#000000" stroke="#000000" points="182.5001,-140.9909 186,-150.991 189.5001,-140.991 182.5001,-140.9909"/>
</g>
<!-- ChatComponent  -->
<g id="node4" class="node">
<title>ChatComponent </title>
<polygon fill="#fb8072" stroke="#000000" points="384.7745,-252 273.2255,-252 273.2255,-216 384.7745,-216 384.7745,-252"/>
<text text-anchor="middle" x="329" y="-229.8" font-family="Times,serif" font-size="14.00" fill="#000000">ChatComponent </text>
</g>
<!-- ChatModule&#45;&gt;ChatComponent  -->
<g id="edge3" class="edge">
<title>ChatModule&#45;&gt;ChatComponent </title>
<path fill="none" stroke="#000000" stroke-dasharray="5,2" d="M229.0909,-175C264.6194,-175 309.2043,-175 309.2043,-175 309.2043,-175 309.2043,-205.9775 309.2043,-205.9775"/>
<polygon fill="#000000" stroke="#000000" points="305.7044,-205.9774 309.2043,-215.9775 312.7044,-205.9775 305.7044,-205.9774"/>
</g>
<!-- ChatTopicComponent  -->
<g id="node5" class="node">
<title>ChatTopicComponent </title>
<polygon fill="#fb8072" stroke="#000000" points="254.932,-252 111.068,-252 111.068,-216 254.932,-216 254.932,-252"/>
<text text-anchor="middle" x="183" y="-229.8" font-family="Times,serif" font-size="14.00" fill="#000000">ChatTopicComponent </text>
</g>
<!-- ChatModule&#45;&gt;ChatTopicComponent  -->
<g id="edge4" class="edge">
<title>ChatModule&#45;&gt;ChatTopicComponent </title>
<path fill="none" stroke="#000000" stroke-dasharray="5,2" d="M186,-187.1061C186,-187.1061 186,-205.991 186,-205.991"/>
<polygon fill="#000000" stroke="#000000" points="182.5001,-205.9909 186,-215.991 189.5001,-205.991 182.5001,-205.9909"/>
</g>
</g>
</svg>
